<svg width="299" height="181" viewBox="0 0 299 181" fill="none" xmlns="http://www.w3.org/2000/svg">
<path d="M258 113C251.881 113.445 248.199 115.235 243.889 119.889C241.514 122.453 227.067 137.872 230.056 142.056C231.421 143.967 237.719 142.991 239.611 143.056C246.053 143.274 252.207 144.506 258 147.444C261.875 149.41 267.462 152.654 268.333 157.444C270.164 167.511 254.759 172.413 247.833 174C230.648 177.938 209.402 174.557 194 166" stroke="black" stroke-linecap="round" stroke-linejoin="round"/>
<ellipse cx="147.5" cy="113" rx="72.5" ry="68" fill="#C4C4C4"/>
<path d="M30 41C19.6595 61.681 -4.15391 126.854 2.72222 104.778C8.68973 85.6189 13.7669 66.1671 19.5 46.9444C20.0043 45.2535 21.2897 40.5091 23.0556 39.5C25.1425 38.3075 31.157 50.3784 31.6667 51.3333C39.3292 65.6905 42 80.8522 42 97" stroke="black" stroke-linecap="round" stroke-linejoin="round"/>
<path d="M2 83C26.1216 82.1586 51.1575 81.2233 74 73" stroke="black" stroke-linecap="round" stroke-linejoin="round"/>
<path d="M65 55C63.7686 78.2514 62.6233 101.499 62.0555 124.778C62.0366 125.556 62.0965 126.339 62 127.111C61.7381 129.206 62.01 122.889 62 120.778C61.9557 111.475 61.7817 102.183 61.3333 92.8889C60.0796 66.9036 56.5868 39.679 61.6667 13.8889C62.7122 8.58053 64.721 0.461855 71.7778 1.44444C77.3139 2.21529 82.675 6.99018 85.6667 11.4444C100.352 33.3086 84.6433 62.3674 65.6111 75.0555C63.3455 76.566 79.8334 90.2119 80.1111 90.4444C95.3797 103.23 111.937 113.854 129 124" stroke="black" stroke-linecap="round" stroke-linejoin="round"/>
<path d="M106 34C114.249 67.7578 117.85 102.484 120.889 137.056C121.679 146.039 126.76 142.215 132.667 138.444C146.476 129.628 161.364 120.466 169.778 105.833C171.534 102.779 163.901 104 162 104" stroke="black" stroke-linecap="round" stroke-linejoin="round"/>
<path d="M100 100C120.255 92.0652 140.34 84.2797 157 70" stroke="black" stroke-linecap="round" stroke-linejoin="round"/>
<path d="M162 63C165.215 74.3546 167.501 90.64 175.722 99.8889C178.778 103.326 188.474 97.4546 190.5 94.9444C197.29 86.5303 192.913 70.3779 190.444 61.2222C189.77 58.7209 188.703 53.3516 186 52" stroke="black" stroke-linecap="round" stroke-linejoin="round"/>
<path d="M219 60C217.676 69.1019 216.297 78.1975 215.222 87.3333C214.541 93.1275 214.055 83.2781 214 82.8333C212.118 67.5931 211.141 50.898 212 35.5556C212.456 27.4139 222.722 31.201 226.167 35.0556C232.083 41.6761 240.085 56.8376 238.833 66.2222C238.087 71.823 214.155 60.5432 211.944 64.3333C208.796 69.7305 235.231 75.1401 236.556 75.4445C256.846 80.1058 277.22 82 298 82" stroke="black" stroke-linecap="round" stroke-linejoin="round"/>
</svg>

